<?xml version="1.0" encoding="UTF-8"?>
<svg id="Layer_1" data-name="Layer 1" xmlns="http://www.w3.org/2000/svg" viewBox="0 0 45 45">
  <defs>
    <style>
      .cls-1 {
        fill: #060606;
        stroke-width: 0px;
      }
    </style>
  </defs>
  <path class="cls-1" d="m25.44.75c.74.23,1.52.37,2.2.71,2.39,1.21,3.68,3.2,3.82,5.88.06,1.19.02,2.38.01,3.57-.01,1-.76,1.74-1.71,1.73-.94,0-1.66-.74-1.68-1.72-.02-1.05,0-2.1,0-3.14,0-2.18-1.44-3.62-3.62-3.63-5.55,0-11.1,0-16.65,0-2.15,0-3.61,1.45-3.61,3.59,0,9.84,0,19.68,0,29.52,0,2.15,1.45,3.59,3.61,3.59,5.55,0,11.1,0,16.65,0,2.17,0,3.61-1.45,3.62-3.63,0-1.01,0-2.01,0-3.02,0-1.08.7-1.84,1.68-1.85,1,0,1.72.76,1.71,1.86-.01,1.39.06,2.78-.09,4.15-.34,3-2.71,5.34-5.7,5.79-.08.01-.15.05-.23.08H6.83c-.48-.12-.96-.21-1.42-.37-2.84-.99-4.61-3.52-4.61-6.6,0-9.13,0-18.26,0-27.39,0-.85-.03-1.7.01-2.55.15-2.68,1.43-4.67,3.82-5.88.68-.34,1.46-.48,2.2-.71,6.2,0,12.4,0,18.61,0Zm18.78,20.9c-.31-.61-.52-1.32-.97-1.81-1.3-1.42-2.69-2.75-4.06-4.11-.41-.4-.93-.54-1.49-.41-1.31.3-1.79,1.83-.85,2.83.77.83,1.59,1.61,2.39,2.41.08.08.16.18.28.32h-.53c-6.49,0-12.97,0-19.46,0-.17,0-.34,0-.51.01-.69.08-1.2.44-1.44,1.09-.25.65-.11,1.26.36,1.77.39.42.9.53,1.47.53,6.53,0,13.06,0,19.58,0h.59c-.92.92-1.77,1.73-2.58,2.58-.26.28-.49.64-.58,1-.19.73.17,1.44.81,1.8.66.37,1.43.29,2-.26,1.03-1,2.01-2.03,3.05-3.02.86-.82,1.64-1.68,1.95-2.87v-1.87Z"/>
</svg>