<?xml version="1.0" encoding="UTF-8"?>
<svg id="Layer_1" data-name="Layer 1" xmlns="http://www.w3.org/2000/svg" viewBox="0 0 45 45">
  <defs>
    <style>
      .cls-1 {
        fill: #060606;
        stroke-width: 0px;
      }
    </style>
  </defs>
  <path class="cls-1" d="m11.52,3.71c0-.56,0-1.05,0-1.53.02-.92.69-1.6,1.57-1.6.87,0,1.55.69,1.56,1.61,0,.49,0,.97,0,1.49h15.69c0-.5,0-.98,0-1.46.01-.95.69-1.64,1.58-1.63.87,0,1.54.7,1.55,1.62,0,.49,0,.97,0,1.51.21,0,.39,0,.56,0,1.85,0,3.69,0,5.54,0,2.85,0,4.88,2.03,4.88,4.87,0,10.32,0,20.65,0,30.97,0,2.84-2.03,4.86-4.89,4.86-11.39,0-22.79,0-34.18,0-2.82,0-4.87-2.03-4.87-4.84,0-10.34,0-20.68,0-31.02,0-2.81,2.04-4.84,4.85-4.85,1.85,0,3.69,0,5.54,0,.18,0,.35,0,.59,0Zm-7.85,12.55v.54c0,7.55,0,15.1,0,22.65,0,1.26.59,1.84,1.87,1.84,11.31,0,22.62,0,33.93,0,1.27,0,1.86-.58,1.86-1.85,0-7.55,0-15.1,0-22.65v-.53H3.67Zm37.66-3.17c0-1.57,0-3.08,0-4.6,0-1-.66-1.65-1.67-1.65-11.44,0-22.88,0-34.32,0-1.01,0-1.66.65-1.67,1.65,0,1.44,0,2.87,0,4.31,0,.09.02.18.03.29h37.63Zm-25.45,13.13c-.72-.72-1.66-.76-2.31-.12-.67.66-.63,1.6.11,2.34,1.48,1.48,2.95,2.95,4.43,4.42.77.76,1.56.8,2.39.11.99-.83,1.96-1.67,2.94-2.51,2.64-2.26,5.29-4.51,7.92-6.78.72-.62.78-1.6.19-2.26-.57-.64-1.53-.69-2.24-.1-.45.38-.89.76-1.34,1.14-2.83,2.42-5.65,4.83-8.55,7.31-1.2-1.2-2.36-2.39-3.54-3.56Z"/>
</svg>