<?xml version="1.0" encoding="UTF-8"?>
<svg id="Layer_1" data-name="Layer 1" xmlns="http://www.w3.org/2000/svg" viewBox="0 0 45 45">
  <defs>
    <style>
      .cls-1 {
        fill: #060606;
        stroke-width: 0px;
      }
    </style>
  </defs>
  <path class="cls-1" d="m44.49,23.4c-.25.75-.6,1.46-1.19,2.01-.77.71-1.68,1.08-2.73,1.1-.21,0-.43,0-.72,0,0,.18,0,.35,0,.51,0,4.21,0,8.43,0,12.64,0,2.31-1.47,4.17-3.67,4.69-.39.09-.79.12-1.19.13-2.24.01-4.47,0-6.71,0-.97,0-1.49-.51-1.49-1.48,0-3.3-.04-6.6.02-9.89.02-1.44-.96-2.52-2.49-2.46-1.2.05-2.41,0-3.61,0-1.5,0-2.37.88-2.37,2.38,0,3.28,0,6.57,0,9.85,0,1.12-.48,1.59-1.59,1.59-2.18,0-4.36,0-6.54,0-2.89,0-4.93-2.04-4.93-4.92,0-4.16,0-8.31,0-12.47,0-.17,0-.34,0-.53-.49-.04-.96-.04-1.42-.13-1.53-.3-2.59-1.21-3.08-2.68-.49-1.46-.19-2.8.8-3.97.13-.15.27-.29.42-.43C7.57,13.73,13.18,8.13,18.78,2.51c.81-.81,1.6-1.64,2.73-1.99h2.06c1.09.35,1.86,1.12,2.64,1.9,5.51,5.53,11.03,11.05,16.56,16.56.74.74,1.41,1.5,1.7,2.53v1.89Zm-15.13,18.5h.53c1.51,0,3.01-.07,4.52.02,1.86.11,2.93-.81,2.89-2.9-.08-4.5-.03-9-.03-13.5,0-1.11.48-1.59,1.6-1.59.56,0,1.12,0,1.68,0,.6-.01,1.04-.3,1.29-.84.27-.56.18-1.09-.2-1.57-.12-.15-.25-.27-.39-.4-5.8-5.8-11.6-11.6-17.4-17.4-.94-.94-1.67-.94-2.61,0-5.19,5.19-10.38,10.38-15.57,15.57-.72.72-1.45,1.43-2.16,2.16-.44.45-.55,1.01-.3,1.59.25.58.71.89,1.35.9.54,0,1.09,0,1.63,0,1.15,0,1.62.47,1.62,1.61,0,4.69,0,9.38,0,14.06,0,1.39.91,2.29,2.29,2.29,1.73,0,3.47,0,5.2,0,.12,0,.25-.01.42-.02,0-.19,0-.36,0-.53,0-2.81-.01-5.62,0-8.43.01-2.66,1.85-4.66,4.5-4.81,1.53-.09,3.07-.02,4.6-.01.26,0,.52.04.77.1,2.25.51,3.74,2.36,3.75,4.71.01,2.81,0,5.62,0,8.43,0,.17,0,.34,0,.57Z"/>
</svg>