<?xml version="1.0" encoding="UTF-8"?>
<svg id="Layer_1" data-name="Layer 1" xmlns="http://www.w3.org/2000/svg" viewBox="0 0 45 45">
  <defs>
    <style>
      .cls-1 {
        fill: #060606;
      }

      .cls-1, .cls-2, .cls-3, .cls-4 {
        stroke-width: 0px;
      }

      .cls-3 {
        fill: none;
      }

      .cls-4 {
        fill: #1a2ee8;
      }
    </style>
  </defs>
  <path class="cls-3" d="m22.47,21.13c4.93.01,8.97-3.99,8.99-8.92.02-4.94-3.98-8.98-8.91-9-4.96-.02-9,3.99-9.01,8.94,0,4.93,4,8.97,8.93,8.98Z"/>
  <g>
    <path class="cls-2" d="m31.97,43.77c1.51-1.5,3.01-3,4.52-4.5-.84.83-1.67,1.66-2.51,2.5-.67.67-1.34,1.34-2.01,2Z"/>
    <path class="cls-2" d="m33.88,28.79c.95-.95,1.89-1.9,2.84-2.85-3.79,3.77-7.56,7.55-11.31,11.35,2.19-2.21,4.39-4.41,6.59-6.61.63-.63,1.25-1.26,1.88-1.89Z"/>
    <path class="cls-3" d="m27.7,38.95c-.01.84,0,1.68,0,2.54,0-.87,0-1.71,0-2.54,0-.08.09-.18.16-.24,2.13-2.14,4.26-4.27,6.39-6.41-2.13,2.13-4.26,4.27-6.39,6.41-.07.07-.15.16-.16.24Z"/>
    <path class="cls-3" d="m39.34,27.95s0,0,0,0c-.06-.06-.12-.1-.18-.13-.02-.01-.04,0-.06-.02-.04-.01-.08-.03-.13-.03-.04,0-.08.01-.12.03-.02,0-.04,0-.06.02-.06.03-.13.07-.19.13-.46.45-.93.89-1.43,1.38.49.48.95.91,1.39,1.35.44.44.88.88,1.35,1.36.25-.25.48-.49.71-.73.23-.23.45-.46.68-.7.11-.12.17-.24.16-.36s-.06-.24-.18-.36c-.64-.65-1.29-1.29-1.94-1.94Z"/>
    <path class="cls-3" d="m38.95,25s0,0,0,0c.11,0,.22.02.33.03-.11-.01-.21-.03-.32-.03Z"/>
    <path class="cls-1" d="m30.84,44.25c.06,0,.11-.01.17-.02-.07,0-.13.02-.2.02,0,0,.02,0,.03,0Z"/>
    <path class="cls-1" d="m27.25,44.25c.45,0,.9,0,1.35,0h.02c-.75,0-1.49,0-2.24,0,.29,0,.58,0,.87,0Z"/>
    <g>
      <path class="cls-1" d="m22.5,23.69c6.34,0,11.51-5.17,11.51-11.5,0-6.36-5.17-11.54-11.52-11.53-6.34,0-11.51,5.16-11.51,11.5,0,6.35,5.17,11.54,11.52,11.54Zm.05-20.48c4.93.02,8.93,4.06,8.91,9-.02,4.93-4.06,8.93-8.99,8.92-4.93-.01-8.94-4.05-8.93-8.98,0-4.95,4.06-8.96,9.01-8.94Z"/>
      <path class="cls-1" d="m22.93,41.77H5.86c.19-.9.29-1.79.55-2.63,1.68-5.34,5.24-8.73,10.71-10.02.81-.19,1.66-.26,2.49-.28,1.92-.04,3.84-.03,5.76,0,1.63.02,3.21.35,4.7.93.65-.65,1.31-1.31,1.96-1.96-2.01-.92-4.28-1.44-6.81-1.53-1.72-.06-3.44-.04-5.16,0-.98.02-1.96.09-2.92.25-7.72,1.26-13.7,8.23-13.85,16.07-.02.81.19,1.41.94,1.76h19.05c-.21-.45-.34-.95-.35-1.5,0-.35,0-.72,0-1.08Z"/>
      <path class="cls-1" d="m44.17,29.7c-.12-.61-.43-1.2-.92-1.73-.67-.71-1.36-1.4-2.07-2.06-.16-.15-.33-.28-.51-.4-.05-.03-.11-.05-.16-.08-.13-.07-.26-.15-.39-.2-.07-.03-.15-.04-.22-.07-.12-.04-.24-.08-.36-.1-.09-.02-.18-.02-.27-.03-.11-.01-.22-.03-.33-.03-.12,0-.23.02-.34.03-.08,0-.17,0-.25.03-.12.02-.24.07-.35.11-.08.02-.15.04-.23.07-.13.05-.25.13-.37.2-.06.03-.12.06-.18.1-.18.12-.34.25-.5.41-.95.95-1.89,1.9-2.84,2.85-.63.63-1.26,1.26-1.88,1.89-2.2,2.2-4.4,4.4-6.59,6.61-.25.26-.44.7-.45,1.06-.02.66-.03,1.31-.03,1.97,0,.48,0,.96,0,1.43,0,0,0,0,0,0,0,.35,0,.7,0,1.05,0,.43.15.79.4,1.03.25.25.61.38,1.04.39.75.01,1.49,0,2.24,0h.02c.43,0,.86,0,1.28,0,.3,0,.59,0,.89,0,.07,0,.13,0,.2-.02.05,0,.09,0,.14-.01.06-.01.12-.03.18-.05.04-.01.08-.02.12-.04.06-.03.12-.06.18-.1.03-.02.06-.03.09-.05.09-.06.17-.13.25-.21.67-.67,1.34-1.34,2.01-2,.84-.83,1.67-1.66,2.51-2.5.54-.54,1.08-1.07,1.62-1.61.64-.63,1.28-1.27,1.91-1.9,1.05-1.05,2.11-2.09,3.16-3.14.34-.34.6-.72.78-1.1.13-.29.21-.59.25-.9.04-.3.02-.61-.03-.91Zm-6.54,4.56c-.29.29-.58.58-.88.87-2.04,2.03-4.09,4.07-6.14,6.09-.15.15-.41.26-.62.27-.33.01-.67.02-1.01.02-.03,0-.07,0-.1,0-.39,0-.78,0-1.19,0,0-.87,0-1.71,0-2.54,0-.08.09-.18.16-.24,2.13-2.14,4.26-4.27,6.39-6.41.31-.31.61-.61.92-.92.02-.02.05-.03.08-.04.89.89,1.76,1.75,2.64,2.64-.08.08-.17.19-.27.29Zm3.67-3.65c-.22.23-.45.46-.68.7-.23.23-.47.47-.71.73-.47-.48-.91-.92-1.35-1.36-.45-.44-.9-.87-1.39-1.35.51-.49.97-.93,1.43-1.38.06-.06.13-.1.19-.13.02-.01.04,0,.06-.02.04-.01.08-.03.12-.03,0,0,0,0,0,0,.04,0,.08.02.13.03.02,0,.04,0,.06.02.06.03.12.08.18.13,0,0,0,0,0,0,.65.64,1.3,1.29,1.94,1.94.11.11.17.24.18.36s-.05.24-.16.36Z"/>
    </g>
    <path class="cls-4" d="m40.62,31.31c.23-.23.45-.46.68-.7.11-.12.17-.24.16-.36,0,.12-.05.24-.16.36-.22.23-.45.46-.68.7Z"/>
    <path class="cls-4" d="m28.98,41.5c.34,0,.67,0,1.01-.02-.36.02-.73.02-1.1.02.03,0,.07,0,.1,0Z"/>
    <path class="cls-4" d="m38.96,27.77s-.08.02-.12.03c.04-.01.08-.03.12-.03,0,0,0,0,0,0Z"/>
    <path class="cls-4" d="m36.75,35.13c.29-.29.58-.58.88-.87.1-.1.19-.2.27-.29-.08.08-.17.19-.27.29-.29.29-.58.58-.88.87Z"/>
    <path class="cls-4" d="m41.28,29.89c-.64-.65-1.29-1.29-1.94-1.94,0,0,0,0,0,0,0,0,0,0,0,0,.65.64,1.3,1.29,1.94,1.94Z"/>
    <path class="cls-4" d="m30.61,41.22c-.15.15-.41.26-.62.27.21,0,.47-.12.62-.27Z"/>
    <path class="cls-4" d="m28.64,44.24h-.02c.73,0,1.46,0,2.19,0-.3,0-.59,0-.89,0-.43,0-.86,0-1.28,0Z"/>
    <path class="cls-4" d="m24.93,40.33h0c0,.48,0,.95,0,1.43,0,0,0,0,0,0,0-.48,0-.96,0-1.43Z"/>
    <path class="cls-4" d="m24.96,38.36c-.02.66-.03,1.31-.03,1.97h0c0-.65,0-1.31.03-1.97Z"/>
    <polygon class="cls-4" points="24.93 41.76 24.93 41.76 24.93 41.77 24.93 41.77 24.93 41.76"/>
    <polygon class="cls-4" points="24.93 41.75 24.93 41.76 24.93 41.76 24.93 41.75"/>
    <path class="cls-4" d="m24.93,41.77c0,.35,0,.7,0,1.05,0-.35,0-.7,0-1.05h0Z"/>
  </g>
</svg>