<?xml version="1.0" encoding="UTF-8"?>
<svg id="Layer_1" data-name="Layer 1" xmlns="http://www.w3.org/2000/svg" viewBox="0 0 45 45">
  <defs>
    <style>
      .cls-1 {
        fill: #060606;
        stroke-width: 0px;
      }
    </style>
  </defs>
  <path class="cls-1" d="m44.65,9.24v29.3s-.05.08-.05.12c-.27,1.95-1.95,3.36-4.04,3.36-12.04-.01-24.08,0-36.12-.01-.39,0-.78-.04-1.15-.14-1.87-.52-2.93-1.99-2.93-4.03,0-9.35,0-18.7,0-28.04,0-1.13.47-1.59,1.61-1.59,3.65,0,7.3,0,10.94,0,.17,0,.33,0,.51,0,0-.45,0-.82,0-1.2.03-2.31,1.69-3.99,4-4,3.39-.02,6.78-.02,10.17.01.6,0,1.25.15,1.79.4,1.48.7,2.17,1.95,2.22,3.58.01.4,0,.79,0,1.2h.59c3.6,0,7.21.01,10.81-.01.82,0,1.4.24,1.66,1.05Zm-28.64,17.17h-.52c-2.18,0-4.35,0-6.53,0-2.01,0-3.38-.99-4.02-2.91-.6-1.81-1.2-3.61-1.81-5.42-.04-.11-.09-.22-.16-.41-.01.14-.02.18-.02.22,0,6.7,0,13.41,0,20.11,0,.9.55,1.4,1.5,1.4,12.04,0,24.08,0,36.12,0,.98,0,1.49-.51,1.49-1.5,0-6.62,0-13.23,0-19.85,0-.1-.02-.2-.02-.3-.69,1.9-1.33,3.8-1.96,5.7-.65,1.95-2.01,2.94-4.04,2.94-2.18,0-4.35,0-6.53,0h-.51c0,.44,0,.84,0,1.24-.02.8-.54,1.35-1.32,1.35-3.45,0-6.89,0-10.34,0-.77,0-1.29-.55-1.31-1.32-.01-.4,0-.81,0-1.27Zm0-2.6c0-.46,0-.85,0-1.23.02-.82.54-1.36,1.36-1.36,3.42,0,6.83,0,10.25,0,.82,0,1.35.54,1.36,1.36,0,.4,0,.8,0,1.24h.51c2.13,0,4.27,0,6.4,0,1.07,0,1.41-.25,1.74-1.25,1.2-3.61,2.41-7.22,3.61-10.83.1-.29.19-.59.29-.89H3.46c.03.1.05.17.07.23,1.3,3.9,2.59,7.8,3.89,11.7.26.77.67,1.05,1.49,1.05,1.87,0,3.75,0,5.62,0,.47,0,.95,0,1.47,0Zm12.98-15.63c0-.36,0-.71,0-1.05,0-1.04-.5-1.53-1.54-1.53-2.16,0-4.32,0-6.48,0-1.2,0-2.39,0-3.59,0-.71,0-1.27.44-1.34,1.1-.05.48-.01.97-.01,1.48h12.96Zm-10.36,18.2h7.73v-2.55h-7.73v2.55Z"/>
</svg>