<?xml version="1.0" encoding="UTF-8"?>
<svg id="Layer_1" data-name="Layer 1" xmlns="http://www.w3.org/2000/svg" viewBox="0 0 45 45">
  <defs>
    <style>
      .cls-1 {
        fill: #060606;
        stroke-width: 0px;
      }
    </style>
  </defs>
  <path class="cls-1" d="m4.24,44.34c-.76-.35-.96-.95-.94-1.76.15-7.84,6.13-14.81,13.85-16.07.96-.16,1.95-.22,2.92-.25,1.72-.04,3.44-.06,5.16,0,6.61.23,11.45,3.37,14.61,9.12,1.23,2.24,1.76,4.69,1.87,7.24.03.8-.21,1.38-.94,1.72H4.24Zm34.87-2.58c-.11-.64-.19-1.23-.31-1.81-1.28-6.26-7.04-11.04-13.42-11.13-1.92-.03-3.84-.03-5.76,0-.83.02-1.68.09-2.49.28-5.47,1.29-9.02,4.68-10.71,10.02-.26.84-.37,1.73-.55,2.63h33.24Zm-16.6-18.07c-6.35,0-11.53-5.18-11.52-11.54,0-6.34,5.18-11.5,11.51-11.5,6.36,0,11.53,5.18,11.52,11.53,0,6.34-5.18,11.5-11.51,11.5Zm-.04-2.56c4.93.01,8.97-3.99,8.99-8.92.02-4.94-3.98-8.98-8.91-9-4.96-.02-9,3.99-9.01,8.94,0,4.93,4,8.97,8.93,8.98Z"/>
</svg>