<?xml version="1.0" encoding="utf-8"?>
<!-- Generator: Adobe Illustrator 28.0.0, SVG Export Plug-In . SVG Version: 6.00 Build 0)  -->
<svg version="1.1" id="Layer_1" xmlns="http://www.w3.org/2000/svg" xmlns:xlink="http://www.w3.org/1999/xlink" x="0px" y="0px"
	 viewBox="0 0 384.1 145.6" style="enable-background:new 0 0 384.1 145.6;" xml:space="preserve">
<style type="text/css">
	.st0{fill:#010326;}
</style>
<path class="st0" d="M106.7,137.3H22.6c-12.4,0-22.4-10.1-22.4-22.4V30.8c0-12.4,10.1-22.4,22.4-22.4h84.1
	c12.4,0,22.4,10.1,22.4,22.4v84.1C129.1,127.2,119.1,137.3,106.7,137.3z M22.6,13.8c-9.4,0-17,7.6-17,17v84.1c0,9.4,7.6,17,17,17
	h84.1c9.3,0,17-7.6,17-17V30.8c0-9.4-7.6-17-17-17H22.6z M64.6,18.9C44.7,18.9,28.5,35,28.5,55s36.1,72.9,36.1,72.9
	s36.1-52.9,36.1-72.9S84.6,18.9,64.6,18.9z M66.6,44c0.1-2.4,0.7-4.6,2.2-6.5c1-1.3,2.2-2.2,3.7-2.8c1.7-0.7,3.3-0.4,4.7,0.8
	c0.9,0.7,1.3,1.6,1.6,2.6c0.6,1.9,0.4,3.8-0.3,5.7c-0.5,1.4-1.2,2.7-2.3,3.8c-1.2,1.3-2.7,2.2-4.5,2.5c-1.1,0.1-2.1-0.1-3-0.8
	c-0.9-0.6-1.5-1.4-1.8-2.4C66.7,46,66.4,45.1,66.6,44z M51.5,39.2c0.3-2,1.2-3.8,3.2-4.8c0.7-0.3,1.5-0.4,2.2-0.3
	c1.3,0.1,2.3,0.7,3.4,1.5c1.3,1,2,2.4,2.7,3.7c0.6,1.1,0.7,2.3,0.7,3.5c0,1.5,0,3-0.8,4.3c-1.1,1.8-2.6,2.9-4.7,2.7
	c-1.4-0.1-2.7-0.7-3.7-1.8c-0.3-0.3-0.6-0.5-0.9-0.8C52,44.8,51,42.2,51.5,39.2z M44.6,58.4c-1.1-0.8-2-1.7-2.7-2.9
	c-1-1.7-1.6-3.5-1.3-5.6c0.2-1,0.6-1.8,1.3-2.5c1.2-1.3,2.7-1.6,4.3-1.4c1,0.1,1.8,0.5,2.7,1c1.7,1,2.8,2.4,3.7,4
	c0.6,1.2,0.9,2.4,0.8,3.8c0,1.1-0.2,2.3-1,3.2c-1.2,1.5-2.8,1.9-4.6,1.7C46.7,59.6,45.5,59.1,44.6,58.4z M77.9,72.2
	c-2.2,1.6-4.5,1.8-7.1,1c-1.1-0.3-2.2-0.8-3.3-1c-1.6-0.3-3.2-0.1-4.7,0.4c-2.8,0.8-5.7,1.4-8.6,1.3c-1.6-0.1-3.2-0.4-4.5-1.4
	c-0.5-0.4-0.8-0.9-0.9-1.6c-0.1-0.7,0-1.4,0.1-2c0.4-1.6,1.2-2.9,2-4.3c0.8-1.3,1.7-2.4,2.7-3.5c0.8-0.9,1.7-1.8,2.6-2.5
	c0.7-0.6,1.4-1.2,2.1-1.7c2.2-1.5,4.5-2.6,7.2-2.3c1.3,0.2,2.6,0.6,3.7,1.3c0.9,0.5,1.7,1.1,2.5,1.7c1.1,0.8,2.1,1.8,3.1,2.8
	c1,1,1.9,2.2,2.7,3.4c0.7,1,1.3,2.1,1.7,3.2c0.3,0.8,0.6,1.6,0.5,2.4C80,70.8,78.9,71.5,77.9,72.2z M88.8,53c0,1.9-0.7,3.4-1.5,4.8
	c-0.6,1-1.4,1.6-2.1,2.4c-0.2,0.3-0.6,0.4-0.9,0.5c-1.3,0.8-2.7,1.3-4.2,1.1c-0.8-0.1-1.6-0.4-2.2-1c-0.5-0.4-0.9-0.8-1.2-1.4
	c-0.6-1.1-0.7-2.2-0.6-3.4c0.1-1.5,0.6-2.9,1.5-4.1c0.7-1,1.5-1.9,2.5-2.6c1.9-1.2,3.9-1.9,6.1-1c1.3,0.5,1.9,1.5,2.5,2.7
	C88.8,51.8,88.8,52.5,88.8,53z M184,38.9h-27.7V59h17l0.1,11.5h-17.1V107h-12.2V27.5H184L184,38.9L184,38.9z M193.2,56.8v28.7
	c0,3,0.1,6.4,2.1,9.1c1.6,2,4.3,3.5,7.6,3.5c3.3,0,6.1-1.4,7.6-3.5c2-2.6,2.1-6.1,2.1-9.1V56.8h11.7v29.1c0,6.4-0.7,11.8-5.4,16.4
	c-4.5,4.5-10.7,6.2-16.3,6.2c-5.1,0-11.3-1.6-15.9-6.2c-4.6-4.7-5.4-10-5.4-16.4V56.8H193.2z M234,56.8h11.7v4.5
	c1.3-1.6,3.2-3.2,4.9-4.2c2.3-1.3,4.5-1.7,7.1-1.7c2.9,0,6,0.5,9.2,2.4l-4.8,10.6c-2.6-1.7-4.8-1.8-6-1.8c-2.5,0-5,0.4-7.3,2.7
	c-3.2,3.5-3.2,8.2-3.2,11.6v26H234V56.8z M272.1,56.8h11.7v4.5c1.3-1.6,3.2-3.2,4.9-4.2c2.3-1.3,4.5-1.7,7.1-1.7
	c2.9,0,6,0.5,9.2,2.4l-4.8,10.6c-2.6-1.7-4.8-1.8-6-1.8c-2.5,0-5,0.4-7.3,2.7c-3.2,3.5-3.2,8.2-3.2,11.6v26h-11.7V56.8z M322.6,56.8
	V107h-11.7V56.8H322.6z M383.9,81.9c0,15.4-11.7,26.6-26.8,26.6c-15.1,0-26.8-11.2-26.8-26.6c0-15.5,11.7-26.5,26.8-26.5
	C372.2,55.5,383.9,66.4,383.9,81.9z M372,82.1c0-11.4-7.5-16.1-14.9-16.1c-7.4,0-14.9,4.7-14.9,16.1c0,9.7,5.7,16,14.9,16
	C366.3,98,372,91.7,372,82.1z M316.7,46c-5.7,0-10-4.3-10-10c0-5.7,4.3-10,10-10c5.7,0,10,4.3,10,10S322.4,46,316.7,46z M316.7,31
	c-2.9,0-5,2.1-5,5s2.1,5,5,5s5-2.1,5-5C321.8,33.1,319.7,31,316.7,31z"/>
</svg>
