<?xml version="1.0" encoding="utf-8"?>
<!-- Generator: Adobe Illustrator 28.0.0, SVG Export Plug-In . SVG Version: 6.00 Build 0)  -->
<svg version="1.1" id="Layer_1" xmlns="http://www.w3.org/2000/svg" xmlns:xlink="http://www.w3.org/1999/xlink" x="0px" y="0px"
	 viewBox="0 0 384.1 145.6" style="enable-background:new 0 0 384.1 145.6;" xml:space="preserve">
<style type="text/css">
	.st0{fill:#FFFFFF;}
</style>
<path class="st0" d="M106.6,138H22.6c-12.4,0-22.4-10.1-22.4-22.4V31.5C0.1,19.1,10.2,9,22.6,9h84.1c12.4,0,22.4,10.1,22.4,22.4
	v84.1C129.1,127.9,119,138,106.6,138z M22.6,14.5c-9.4,0-17,7.6-17,17v84.1c0,9.4,7.6,17,17,17h84.1c9.3,0,17-7.6,17-17V31.5
	c0-9.4-7.6-17-17-17H22.6z M64.6,19.6c-19.9,0-36.1,16.2-36.1,36.1s36.1,72.9,36.1,72.9s36.1-52.9,36.1-72.9S84.5,19.6,64.6,19.6z
	 M66.5,44.7c0.1-2.4,0.7-4.6,2.2-6.5c1-1.3,2.2-2.2,3.7-2.8c1.7-0.7,3.3-0.4,4.7,0.8c0.9,0.7,1.3,1.6,1.6,2.6
	c0.6,1.9,0.4,3.8-0.3,5.7c-0.5,1.4-1.2,2.7-2.3,3.8c-1.2,1.3-2.7,2.2-4.5,2.5c-1.1,0.1-2.1-0.1-3-0.8c-0.9-0.6-1.5-1.4-1.8-2.4
	C66.7,46.7,66.4,45.8,66.5,44.7z M51.4,39.9c0.3-2,1.2-3.8,3.2-4.8c0.7-0.3,1.5-0.4,2.2-0.3c1.3,0.1,2.3,0.7,3.4,1.5
	c1.3,1,2,2.4,2.7,3.7c0.6,1.1,0.7,2.3,0.7,3.5c0,1.5,0,3-0.8,4.3c-1.1,1.8-2.6,2.9-4.7,2.7c-1.4-0.1-2.7-0.7-3.7-1.8
	c-0.3-0.3-0.6-0.5-0.9-0.8C51.9,45.5,50.9,42.9,51.4,39.9z M44.5,59.1c-1.1-0.8-2-1.7-2.7-2.9c-1-1.7-1.6-3.5-1.3-5.6
	c0.2-1,0.6-1.8,1.3-2.5c1.2-1.3,2.7-1.6,4.3-1.4c1,0.1,1.8,0.5,2.7,1c1.7,1,2.8,2.4,3.7,4c0.6,1.2,0.9,2.4,0.8,3.8
	c0,1.1-0.2,2.3-1,3.2c-1.2,1.5-2.8,1.9-4.6,1.7C46.6,60.3,45.5,59.8,44.5,59.1z M77.8,72.9c-2.2,1.6-4.5,1.8-7.1,1
	c-1.1-0.3-2.2-0.8-3.3-1c-1.6-0.3-3.2-0.1-4.7,0.4c-2.8,0.8-5.7,1.4-8.6,1.3c-1.6-0.1-3.2-0.4-4.5-1.4c-0.5-0.4-0.8-0.9-0.9-1.6
	c-0.1-0.7,0-1.4,0.1-2c0.4-1.6,1.2-2.9,2-4.3c0.8-1.3,1.7-2.4,2.7-3.5c0.8-0.9,1.7-1.8,2.6-2.5c0.7-0.6,1.4-1.2,2.1-1.7
	c2.2-1.5,4.5-2.6,7.2-2.3c1.3,0.2,2.6,0.6,3.7,1.3c0.9,0.5,1.7,1.1,2.5,1.7c1.1,0.8,2.1,1.8,3.1,2.8c1,1,1.9,2.2,2.7,3.4
	c0.7,1,1.3,2.1,1.7,3.2c0.3,0.8,0.6,1.6,0.5,2.4C80,71.5,78.8,72.2,77.8,72.9z M88.7,53.7c0,1.9-0.7,3.4-1.5,4.8
	c-0.6,1-1.4,1.6-2.1,2.4c-0.2,0.3-0.6,0.4-0.9,0.5c-1.3,0.8-2.7,1.3-4.2,1.1c-0.8-0.1-1.6-0.4-2.2-1c-0.5-0.4-0.9-0.8-1.2-1.4
	c-0.6-1.1-0.7-2.2-0.6-3.4c0.1-1.5,0.6-2.9,1.5-4.1c0.7-1,1.5-1.9,2.5-2.6c1.9-1.2,3.9-1.9,6.1-1c1.3,0.5,1.9,1.5,2.5,2.7
	C88.7,52.5,88.7,53.2,88.7,53.7z M183.9,39.6h-27.7v20.1h17l0.1,11.5h-17.1v36.5h-12.2V28.2h39.8L183.9,39.6L183.9,39.6z
	 M193.1,57.5v28.7c0,3,0.1,6.4,2.1,9.1c1.6,2,4.3,3.5,7.6,3.5c3.3,0,6.1-1.4,7.6-3.5c2-2.6,2.1-6.1,2.1-9.1V57.5h11.7v29.1
	c0,6.4-0.7,11.8-5.4,16.4c-4.5,4.5-10.7,6.2-16.3,6.2c-5.1,0-11.3-1.6-15.9-6.2c-4.6-4.7-5.4-10-5.4-16.4V57.5H193.1z M234,57.5
	h11.7V62c1.3-1.6,3.2-3.2,4.9-4.2c2.3-1.3,4.5-1.7,7.1-1.7c2.9,0,6,0.5,9.2,2.4l-4.8,10.6c-2.6-1.7-4.8-1.8-6-1.8
	c-2.5,0-5,0.4-7.3,2.7c-3.2,3.5-3.2,8.2-3.2,11.6v26H234V57.5z M272,57.5h11.7V62c1.3-1.6,3.2-3.2,4.9-4.2c2.3-1.3,4.5-1.7,7.1-1.7
	c2.9,0,6,0.5,9.2,2.4l-4.8,10.6c-2.6-1.7-4.8-1.8-6-1.8c-2.5,0-5,0.4-7.3,2.7c-3.2,3.5-3.2,8.2-3.2,11.6v26H272V57.5z M322.5,57.5
	v50.2h-11.7V57.5H322.5z M383.9,82.6c0,15.4-11.7,26.6-26.8,26.6c-15.1,0-26.8-11.2-26.8-26.6c0-15.5,11.7-26.5,26.8-26.5
	C372.2,56.2,383.9,67.1,383.9,82.6z M371.9,82.8c0-11.4-7.5-16.1-14.9-16.1c-7.4,0-14.9,4.7-14.9,16.1c0,9.7,5.7,16,14.9,16
	C366.2,98.7,371.9,92.4,371.9,82.8z M316.7,46.7c-5.7,0-10-4.3-10-10c0-5.7,4.3-10,10-10c5.7,0,10,4.3,10,10S322.4,46.7,316.7,46.7z
	 M316.7,31.7c-2.9,0-5,2.1-5,5s2.1,5,5,5s5-2.1,5-5C321.7,33.8,319.6,31.7,316.7,31.7z"/>
</svg>
