<?xml version="1.0" encoding="UTF-8"?>
<svg id="Layer_1" data-name="Layer 1" xmlns="http://www.w3.org/2000/svg" viewBox="0 0 45 45">
  <defs>
    <style>
      .cls-1 {
        fill: #060606;
        stroke-width: 0px;
      }
    </style>
  </defs>
  <path class="cls-1" d="m9.26,44.36c-.5-.23-.78-.65-1.02-1.13-2.42-4.87-4.86-9.74-7.3-14.61-.55-1.1-.36-1.68.75-2.23.76-.38,1.53-.76,2.29-1.15,1.14-.59,2.3-.67,3.5-.17.12.05.35-.02.47-.11,1.11-.91,2.15-1.93,3.33-2.74,3.06-2.1,7.4-1.87,10.3.43q1.52,1.21,3.46,1.21c1.64,0,3.27,0,4.91,0,1.88-.01,3.22.79,3.94,2.56,0,.02.04.04.17.17.08-.13.14-.28.24-.39,1.1-1.19,2.2-2.39,3.32-3.56,1.49-1.57,3.51-1.77,5.24-.53.74.54,1.2,1.28,1.42,2.17.03.12.07.24.11.36v.94c-.17.9-.6,1.66-1.15,2.39-1.87,2.46-3.71,4.93-5.56,7.41-1.93,2.59-4.5,3.88-7.73,3.87-4.75,0-9.51,0-14.26,0h-.5c-.02.08-.04.12-.04.16-.08,1.71-.94,2.87-2.46,3.59-.92.44-1.82.92-2.73,1.38h-.68Zm.18-17.32c.04.1.06.17.09.24,1.52,3.04,3.04,6.07,4.55,9.12.13.26.3.28.54.28,4.14,0,8.28,0,12.43,0,1.11,0,2.22.02,3.33,0,1.92-.06,3.56-.79,4.77-2.29,1.22-1.5,2.35-3.08,3.51-4.62.95-1.26,1.91-2.52,2.84-3.79.61-.83.23-1.87-.74-2.07-.55-.11-.96.13-1.32.52-1.77,1.91-3.55,3.81-5.32,5.72-.79.85-1.74,1.39-2.91,1.4-2.5.03-5.01.02-7.52,0-.6,0-1.08-.42-1.2-.97-.2-.85.4-1.58,1.31-1.58,2.11,0,4.21,0,6.32,0,.58,0,1.03-.2,1.29-.73.43-.86-.2-1.82-1.21-1.83-1.76-.01-3.54-.09-5.29.02-1.9.12-3.42-.49-4.87-1.7-1.89-1.57-4.09-1.81-6.38-.92-1.71.67-2.82,2.13-4.22,3.21Zm-5.81,1.23c2.19,4.38,4.36,8.72,6.54,13.08.47-.24.9-.45,1.33-.66,1.12-.56,1.31-1.12.76-2.23-.84-1.69-1.69-3.38-2.53-5.07-.88-1.75-1.75-3.51-2.63-5.26-.35-.7-.95-1.01-1.6-.76-.63.25-1.22.58-1.87.9ZM20.09,9.39c-2.33-2.58-1.52-5.79.35-7.45,1.94-1.71,4.8-1.75,6.75-.05,1.82,1.58,2.72,4.79.42,7.48.35.26.72.49,1.06.77,1.9,1.58,2.83,3.62,2.88,6.08,0,.37,0,.74,0,1.11-.01.89-.52,1.4-1.41,1.4-3.03,0-6.06,0-9.1,0-1.17,0-2.33,0-3.5,0-.94,0-1.44-.51-1.45-1.45-.01-1.26.02-2.5.47-3.7.62-1.65,1.66-2.97,3.14-3.92.13-.08.26-.17.39-.26Zm8.91,6.76c-.1-1.98-.91-3.52-2.61-4.5-1.8-1.04-3.63-.95-5.36.19-1.52,1-2.3,2.45-2.38,4.31h10.35Zm-5.13-7.76c1.39,0,2.55-1.16,2.55-2.56,0-1.42-1.2-2.66-2.58-2.65-1.38.01-2.61,1.25-2.62,2.63-.01,1.38,1.22,2.58,2.65,2.57Z"/>
</svg>