<?xml version="1.0" encoding="UTF-8"?>
<svg id="Layer_1" data-name="Layer 1" xmlns="http://www.w3.org/2000/svg" viewBox="0 0 45 45">
  <defs>
    <style>
      .cls-1 {
        fill: #fff;
        stroke-width: 0px;
      }
    </style>
  </defs>
  <path class="cls-1" d="m36.99,16.7h-8.69v-8.69c0-1.11-.9-2.01-2.01-2.01h-8.08c-1.11,0-2.01.9-2.01,2.01v8.69H7.51c-1.11,0-2.01.9-2.01,2.01v8.08c0,1.11.9,2.01,2.01,2.01h8.69v8.69c0,1.11.9,2.01,2.01,2.01h8.08c1.11,0,2.01-.9,2.01-2.01v-8.69h8.69c1.11,0,2.01-.9,2.01-2.01v-8.08c0-1.11-.9-2.01-2.01-2.01Z"/>
</svg>