<?xml version="1.0" encoding="UTF-8"?>
<svg id="Layer_1" data-name="Layer 1" xmlns="http://www.w3.org/2000/svg" viewBox="0 0 45 45">
  <defs>
    <style>
      .cls-1 {
        fill: #060606;
        stroke-width: 0px;
      }
    </style>
  </defs>
  <path class="cls-1" d="m42.26,15.38c-.42-3.21-2.28-6.03-5.12-7.75-2.86-1.73-6.26-2.07-9.33-.93-1.55.57-2.92,1.45-4.07,2.61l-1.23,1.22-.64-.65c-.23-.24-.46-.47-.68-.69-2.09-2.04-4.82-3.15-7.67-3.15-.47,0-.95.03-1.42.09-3.28.43-6.13,2.3-7.83,5.14-2.35,3.93-2.15,8,.58,12.1.94,1.42,2.22,2.6,3.46,3.75l.52.49c4.13,3.86,8.44,7.44,12.49,10.77.9.75,1.51.74,2.41,0l1.43-1.19c1.37-1.14,2.75-2.28,4.11-3.43,2.98-2.53,6.14-5.27,9.05-8.17,1.86-1.85,2.98-3.63,3.54-5.6.15-.53.25-1.08.35-1.62.04-.24.09-.49.14-.73l-.02-1.88c-.02-.13-.05-.26-.06-.39Zm-5.2,7.41c-1.63,1.69-3.47,3.43-5.62,5.34-1.94,1.71-3.95,3.41-5.89,5.05-.83.7-1.66,1.4-2.48,2.1-.07.06-.13.11-.22.17l-.36.27-.23-.19c-.59-.5-1.19-1-1.78-1.5-1.28-1.07-2.61-2.17-3.87-3.3-2.39-2.12-4.91-4.41-7.94-7.22-1.54-1.43-2.53-3.11-2.95-5.01-.48-2.2,0-4.51,1.33-6.34,1.32-1.82,3.35-3,5.57-3.23,2.56-.27,4.8.52,6.66,2.33l.3.29c.38.37.77.75,1.14,1.15.72.81,1.3,1.19,1.82,1.19h0c.51,0,1.08-.37,1.8-1.18.67-.75,1.37-1.43,2.07-2.02,2.18-1.81,5.08-2.33,7.76-1.4,2.66.92,4.59,3.11,5.17,5.86.6,2.82-.19,5.46-2.28,7.63Z"/>
</svg>