<?xml version="1.0" encoding="utf-8"?>
<!-- Generator: Adobe Illustrator 28.0.0, SVG Export Plug-In . SVG Version: 6.00 Build 0)  -->
<svg version="1.1" id="Layer_1" xmlns="http://www.w3.org/2000/svg" xmlns:xlink="http://www.w3.org/1999/xlink" x="0px" y="0px"
	 viewBox="0 0 384.1 145.6" style="enable-background:new 0 0 384.1 145.6;" xml:space="preserve">
<style type="text/css">
	.st0{fill:#010326;}
</style>
<path class="st0" d="M106.69,141.51H22.61c-12.37,0-22.43-10.06-22.43-22.43V35c0-12.37,10.06-22.43,22.43-22.43h84.08
	c12.37,0,22.43,10.06,22.43,22.43v84.08C129.11,131.45,119.05,141.51,106.69,141.51z M22.61,18.04c-9.35,0-16.96,7.61-16.96,16.96
	v84.08c0,9.35,7.61,16.96,16.96,16.96h84.08c9.35,0,16.96-7.61,16.96-16.96V35c0-9.35-7.61-16.96-16.96-16.96H22.61z M64.65,23.1
	c-19.94,0-36.11,16.17-36.11,36.11c0,19.94,36.11,72.87,36.11,72.87s36.11-52.92,36.11-72.87C100.76,39.26,84.59,23.1,64.65,23.1z
	 M66.56,48.28c0.07-2.39,0.72-4.56,2.22-6.48c1.01-1.29,2.21-2.25,3.72-2.84c1.73-0.68,3.3-0.41,4.74,0.76
	c0.85,0.69,1.26,1.64,1.6,2.64c0.64,1.92,0.39,3.82-0.26,5.67c-0.49,1.41-1.21,2.68-2.26,3.8c-1.25,1.34-2.69,2.24-4.49,2.48
	c-1.07,0.14-2.05-0.14-2.98-0.78c-0.89-0.62-1.51-1.38-1.84-2.37C66.71,50.23,66.44,49.29,66.56,48.28z M51.47,43.43
	c0.34-2.04,1.23-3.8,3.19-4.77c0.69-0.34,1.47-0.41,2.24-0.34c1.3,0.11,2.35,0.67,3.4,1.48c1.3,1,1.99,2.36,2.7,3.73
	c0.56,1.09,0.74,2.31,0.72,3.55c0.03,1.5-0.02,2.99-0.82,4.32c-1.07,1.77-2.56,2.86-4.71,2.67c-1.43-0.12-2.67-0.74-3.66-1.8
	c-0.28-0.29-0.63-0.53-0.86-0.85C51.96,49.02,50.98,46.4,51.47,43.43z M44.58,62.63c-1.07-0.81-1.98-1.74-2.67-2.9
	c-1.02-1.72-1.64-3.53-1.28-5.56c0.17-0.95,0.59-1.78,1.27-2.51c1.21-1.31,2.71-1.57,4.35-1.37c0.96,0.11,1.83,0.55,2.66,1.03
	c1.65,0.95,2.84,2.36,3.68,4.03c0.58,1.15,0.9,2.4,0.85,3.77c0.02,1.14-0.25,2.27-1,3.22c-1.18,1.49-2.81,1.94-4.62,1.65
	C46.67,63.79,45.55,63.37,44.58,62.63z M77.89,76.41c-2.16,1.6-4.54,1.83-7.08,1.02c-1.1-0.35-2.17-0.79-3.3-1
	c-1.6-0.29-3.16-0.07-4.72,0.35c-2.83,0.75-5.67,1.41-8.63,1.29c-1.63-0.06-3.18-0.37-4.51-1.42c-0.53-0.41-0.8-0.95-0.88-1.57
	c-0.09-0.67-0.05-1.35,0.12-2.03c0.38-1.58,1.15-2.95,1.98-4.33c0.77-1.29,1.72-2.42,2.69-3.52c0.8-0.9,1.66-1.76,2.59-2.55
	c0.69-0.59,1.41-1.15,2.14-1.66c2.17-1.49,4.48-2.63,7.24-2.27c1.34,0.18,2.55,0.63,3.72,1.32c0.88,0.52,1.74,1.06,2.54,1.68
	c1.08,0.84,2.08,1.78,3.05,2.76c1.03,1.03,1.88,2.19,2.71,3.36c0.71,0.99,1.26,2.11,1.73,3.25c0.32,0.77,0.56,1.55,0.48,2.44
	C80.03,75.04,78.87,75.69,77.89,76.41z M88.76,57.24c0.04,1.93-0.66,3.39-1.5,4.84c-0.57,0.98-1.44,1.61-2.15,2.42
	c-0.24,0.28-0.61,0.36-0.91,0.53c-1.3,0.75-2.65,1.3-4.2,1.07c-0.83-0.12-1.57-0.4-2.24-0.97c-0.49-0.41-0.93-0.83-1.23-1.41
	c-0.55-1.07-0.68-2.23-0.58-3.4c0.13-1.49,0.6-2.87,1.46-4.12c0.68-1.01,1.49-1.91,2.48-2.56c1.87-1.23,3.88-1.87,6.12-0.95
	c1.27,0.52,1.95,1.55,2.46,2.74C88.75,56.08,88.78,56.76,88.76,57.24z M183.99,43.13h-27.66v20.15h16.98l0.09,11.45h-17.07v36.49
	h-12.16V31.69h39.82V43.13z M193.2,61.02v28.74c0,2.98,0.12,6.44,2.15,9.06c1.55,2.03,4.29,3.46,7.63,3.46
	c3.34,0,6.08-1.43,7.63-3.46c2.03-2.62,2.15-6.08,2.15-9.06V61.02h11.69v29.09c0,6.44-0.72,11.8-5.37,16.45
	c-4.53,4.53-10.73,6.2-16.33,6.2c-5.13,0-11.33-1.55-15.86-6.2c-4.65-4.65-5.37-10.02-5.37-16.45V61.02H193.2z M234.01,61.02h11.69
	v4.53c1.31-1.55,3.22-3.22,4.89-4.17c2.27-1.31,4.53-1.67,7.15-1.67c2.86,0,5.96,0.48,9.18,2.38l-4.77,10.61
	c-2.62-1.67-4.77-1.79-5.96-1.79c-2.5,0-5.01,0.36-7.27,2.74c-3.22,3.46-3.22,8.23-3.22,11.57v25.99h-11.69V61.02z M272.1,61.02
	h11.69v4.53c1.31-1.55,3.22-3.22,4.89-4.17c2.27-1.31,4.53-1.67,7.15-1.67c2.86,0,5.96,0.48,9.18,2.38l-4.77,10.61
	c-2.62-1.67-4.77-1.79-5.96-1.79c-2.5,0-5.01,0.36-7.27,2.74c-3.22,3.46-3.22,8.23-3.22,11.57v25.99H272.1V61.02z M322.57,61.02
	v50.2h-11.69v-50.2H322.57z M383.92,86.18c0,15.38-11.69,26.59-26.83,26.59c-15.14,0-26.83-11.21-26.83-26.59
	c0-15.5,11.69-26.47,26.83-26.47C372.23,59.71,383.92,70.68,383.92,86.18z M371.99,86.3c0-11.45-7.51-16.1-14.9-16.1
	c-7.39,0-14.9,4.65-14.9,16.1c0,9.66,5.72,15.98,14.9,15.98C366.27,102.27,371.99,95.95,371.99,86.3z M316.73,50.25
	c-5.69,0-9.97-4.29-9.97-9.97c0-5.69,4.29-9.97,9.97-9.97c5.69,0,9.97,4.29,9.97,9.97C326.7,45.96,322.42,50.25,316.73,50.25z
	 M316.73,35.22c-2.93,0-5.05,2.12-5.05,5.05c0,2.93,2.12,5.05,5.05,5.05c2.93,0,5.05-2.12,5.05-5.05
	C321.78,37.35,319.66,35.22,316.73,35.22z"/>
</svg>
